<svg id="SvgjsSvg1020" width="288" height="288" xmlns="http://www.w3.org/2000/svg" version="1.1" xmlns:xlink="http://www.w3.org/1999/xlink" xmlns:svgjs="http://svgjs.com/svgjs"><defs id="SvgjsDefs1021"></defs><g id="SvgjsG1022"><svg xmlns="http://www.w3.org/2000/svg" viewBox="0 0 64 64" width="288" height="288"><path fill="#ffffff" d="M53.42 52.82H10.58a8 8 0 0 1-8-8V19.18a8 8 0 0 1 8-8h42.84a8 8 0 0 1 8 8v25.64a8 8 0 0 1-8 8ZM10.58 13.18a6 6 0 0 0-6 6v25.64a6 6 0 0 0 6 6h42.84a6 6 0 0 0 6-6V19.18a6 6 0 0 0-6-6Z" class="color222 svgShape"></path><path fill="#ffffff" d="M32 37.58A8 8 0 0 1 27.18 36L3.82 18.31A1 1 0 1 1 5 16.72l23.38 17.65a6 6 0 0 0 7.24 0L59 16.72a1 1 0 1 1 1.21 1.59L36.82 36A8 8 0 0 1 32 37.58Z" class="color222 svgShape"></path><path fill="#ffffff" d="M4.17 48.64a1 1 0 0 1-.66-1.74L21.9 30.49A1 1 0 0 1 23.23 32L4.84 48.39a1 1 0 0 1-.67.25zm55.66 0a1 1 0 0 1-.67-.25L40.77 32a1 1 0 1 1 1.33-1.49L60.49 46.9a1 1 0 0 1 .08 1.41 1 1 0 0 1-.74.33z" class="color222 svgShape"></path></svg></g></svg>